<svg xmlns="http://www.w3.org/2000/svg" width="20" height="20" viewBox="0 0 20 20" fill="none">
  <mask id="mask0_4270_803" style="mask-type:alpha" maskUnits="userSpaceOnUse" x="0" y="0" width="20" height="20">
    <rect width="20" height="20" fill="#D9D9D9"/>
  </mask>
  <g mask="url(#mask0_4270_803)">
    <path d="M6.69613 13.973C6.82502 13.973 6.93273 13.9288 7.01926 13.8404C7.1058 13.7521 7.14907 13.6416 7.14907 13.509V9.12921C7.14907 9.00767 7.10418 8.90237 7.01438 8.8133C6.92459 8.72424 6.81838 8.67971 6.69576 8.67971C6.56208 8.67971 6.45197 8.72424 6.36543 8.8133C6.2789 8.90237 6.23563 9.00767 6.23563 9.12921V13.509C6.23563 13.6416 6.28016 13.7521 6.36922 13.8404C6.45829 13.9288 6.56726 13.973 6.69613 13.973ZM10.007 13.973C10.1359 13.973 10.2436 13.9288 10.3302 13.8404C10.4167 13.7521 10.4599 13.6416 10.4599 13.509V6.47698C10.4599 6.35543 10.4151 6.25012 10.3253 6.16107C10.2355 6.072 10.1293 6.02746 10.0067 6.02746C9.87297 6.02746 9.76286 6.072 9.67632 6.16107C9.58978 6.25012 9.54651 6.35543 9.54651 6.47698V13.509C9.54651 13.6416 9.59104 13.7521 9.68011 13.8404C9.76918 13.9288 9.87816 13.973 10.007 13.973ZM13.3115 13.973C13.4404 13.973 13.5481 13.9288 13.6346 13.8404C13.7212 13.7521 13.7644 13.6416 13.7644 13.509V11.7222C13.7644 11.6058 13.7195 11.5018 13.6298 11.4102C13.54 11.3185 13.4338 11.2727 13.3111 11.2727C13.1774 11.2727 13.0673 11.3185 12.9808 11.4102C12.8943 11.5018 12.851 11.6058 12.851 11.7222V13.509C12.851 13.6416 12.8955 13.7521 12.9846 13.8404C13.0737 13.9288 13.1826 13.973 13.3115 13.973ZM4.14238 17.0258C3.82851 17.0258 3.55538 16.9096 3.32301 16.6772C3.09062 16.4449 2.97443 16.1717 2.97443 15.8579V4.14257C2.97443 3.82869 3.09062 3.55557 3.32301 3.32319C3.55538 3.0908 3.82851 2.97461 4.14238 2.97461H15.8577C16.1716 2.97461 16.4447 3.0908 16.6771 3.32319C16.9094 3.55557 17.0256 3.82869 17.0256 4.14257V15.8579C17.0256 16.1717 16.9094 16.4449 16.6771 16.6772C16.4447 16.9096 16.1716 17.0258 15.8577 17.0258H4.14238ZM4.14428 16.1124H15.8558C15.9199 16.1124 15.9786 16.0857 16.0321 16.0323C16.0855 15.9788 16.1122 15.9201 16.1122 15.856V4.14446C16.1122 4.08037 16.0855 4.0216 16.0321 3.96817C15.9786 3.91475 15.9199 3.88805 15.8558 3.88805H4.14428C4.08018 3.88805 4.02142 3.91475 3.96799 3.96817C3.91457 4.0216 3.88786 4.08037 3.88786 4.14446V15.856C3.88786 15.9201 3.91457 15.9788 3.96799 16.0323C4.02142 16.0857 4.08018 16.1124 4.14428 16.1124Z" fill="#56616B"/>
  </g>
</svg>