<svg xmlns="http://www.w3.org/2000/svg" width="20" height="20" viewBox="0 0 20 20" fill="none">
  <mask id="mask0_4270_821" style="mask-type:alpha" maskUnits="userSpaceOnUse" x="0" y="0" width="20" height="20">
    <rect width="20" height="20" fill="#D9D9D9"/>
  </mask>
  <g mask="url(#mask0_4270_821)">
    <path d="M13.2529 9.48701L10.192 6.42614C10.114 6.34815 10.059 6.26553 10.0269 6.17828C9.99489 6.09103 9.97887 5.99755 9.97887 5.89785C9.97887 5.79812 9.99489 5.70499 10.0269 5.61845C10.059 5.53192 10.114 5.44966 10.192 5.37166L13.2529 2.3108C13.3309 2.23282 13.4135 2.1778 13.5007 2.14574C13.588 2.11368 13.6815 2.09766 13.7812 2.09766C13.8809 2.09766 13.974 2.11368 14.0606 2.14574C14.1471 2.1778 14.2294 2.23282 14.3073 2.3108L17.3682 5.37166C17.4462 5.44966 17.5012 5.53228 17.5333 5.61953C17.5653 5.70678 17.5813 5.80026 17.5813 5.89997C17.5813 5.99969 17.5653 6.09282 17.5333 6.17934C17.5012 6.26589 17.4462 6.34815 17.3682 6.42614L14.3073 9.48701C14.2294 9.565 14.1467 9.62002 14.0595 9.65207C13.9722 9.68412 13.8788 9.70014 13.779 9.70014C13.6793 9.70014 13.5862 9.68412 13.4997 9.65207C13.4131 9.62002 13.3309 9.565 13.2529 9.48701ZM3.22247 7.86684V3.53997C3.22247 3.32655 3.29465 3.14766 3.43901 3.0033C3.58338 2.85894 3.76226 2.78676 3.97568 2.78676H8.30256C8.51596 2.78676 8.69484 2.85894 8.8392 3.0033C8.98356 3.14766 9.05574 3.32655 9.05574 3.53997V7.86684C9.05574 8.08025 8.98356 8.25913 8.8392 8.40349C8.69484 8.54785 8.51596 8.62003 8.30256 8.62003H3.97568C3.76226 8.62003 3.58338 8.54785 3.43901 8.40349C3.29465 8.25913 3.22247 8.08025 3.22247 7.86684ZM11.043 15.6873V11.3604C11.043 11.147 11.1151 10.9681 11.2595 10.8238C11.4039 10.6794 11.5827 10.6072 11.7961 10.6072H16.123C16.3364 10.6072 16.5153 10.6794 16.6597 10.8238C16.804 10.9681 16.8762 11.147 16.8762 11.3604V15.6873C16.8762 15.9007 16.804 16.0796 16.6597 16.224C16.5153 16.3683 16.3364 16.4405 16.123 16.4405H11.7961C11.5827 16.4405 11.4039 16.3683 11.2595 16.224C11.1151 16.0796 11.043 15.9007 11.043 15.6873ZM3.22247 15.6873V11.3604C3.22247 11.147 3.29465 10.9681 3.43901 10.8238C3.58338 10.6794 3.76226 10.6072 3.97568 10.6072H8.30256C8.51596 10.6072 8.69484 10.6794 8.8392 10.8238C8.98356 10.9681 9.05574 11.147 9.05574 11.3604V15.6873C9.05574 15.9007 8.98356 16.0796 8.8392 16.224C8.69484 16.3683 8.51596 16.4405 8.30256 16.4405H3.97568C3.76226 16.4405 3.58338 16.3683 3.43901 16.224C3.29465 16.0796 3.22247 15.9007 3.22247 15.6873ZM4.47245 7.37007H7.80579V4.03674H4.47245V7.37007ZM13.8009 8.27391L16.1551 5.91974L13.8009 3.56557L11.4468 5.91974L13.8009 8.27391ZM12.2929 15.1905H15.6262V11.8572H12.2929V15.1905ZM4.47245 15.1905H7.80579V11.8572H4.47245V15.1905Z" fill="#56616B"/>
  </g>
</svg>