<svg width="32" height="32" viewBox="0 0 32 32" fill="none" xmlns="http://www.w3.org/2000/svg">
<g id="avatar">
<circle id="Ellipse 4" cx="16" cy="16" r="16" fill="#DBDEE6"/>
<g id="profile">
<path id="Vector" d="M18.7523 15.8631C18.6681 15.8069 18.5697 15.821 18.4996 15.8771C17.7975 16.3966 16.9409 16.6915 16 16.6915C15.0592 16.6915 14.2026 16.3826 13.5005 15.8771C13.4302 15.821 13.3179 15.821 13.2478 15.8631C11.5908 16.9303 10.7622 19.0226 10.7622 21.4239C10.7622 23.0809 21.2379 23.0809 21.2379 21.4239C21.2377 19.0226 20.4092 16.9303 18.7523 15.8631H18.7523Z" fill="white"/>
<path id="Vector_2" d="M19.1316 12.4648C19.1316 14.1943 17.7296 15.5963 16.0001 15.5963C14.2706 15.5963 12.8687 14.1942 12.8687 12.4648C12.8687 10.7354 14.2706 9.33331 16.0001 9.33331C17.7296 9.33331 19.1316 10.7353 19.1316 12.4648Z" fill="white"/>
</g>
</g>
</svg>
