<svg xmlns="http://www.w3.org/2000/svg" width="20" height="20" viewBox="0 0 20 20" fill="none">
  <mask id="mask0_4270_815" style="mask-type:alpha" maskUnits="userSpaceOnUse" x="0" y="0" width="20" height="20">
    <rect width="20" height="20" fill="#C4C4C4"/>
  </mask>
  <g mask="url(#mask0_4270_815)">
    <path d="M1.74438 14.118C1.74438 13.6995 1.85075 13.3291 2.06347 13.0066C2.2762 12.6841 2.56568 12.4318 2.93188 12.2498C3.70965 11.8711 4.49049 11.5785 5.27441 11.3721C6.05832 11.1656 6.91663 11.0624 7.84932 11.0624C8.78202 11.0624 9.63859 11.1656 10.419 11.3721C11.1995 11.5785 11.9804 11.8711 12.7618 12.2498C13.1273 12.4331 13.4163 12.6858 13.6289 13.008C13.8415 13.3302 13.9478 13.7003 13.9478 14.1184V14.6889C13.9478 15.0013 13.833 15.2763 13.6032 15.5141C13.3734 15.7519 13.0943 15.8708 12.766 15.8708H2.92624C2.59789 15.8708 2.31883 15.7559 2.08905 15.5262C1.85927 15.2964 1.74438 15.0173 1.74438 14.6889V14.118ZM17.0777 15.8708H15.2355C15.329 15.6908 15.4015 15.5015 15.4531 15.303C15.5046 15.1045 15.5304 14.8998 15.5304 14.6889V14.084C15.5304 13.5409 15.407 13.0234 15.1602 12.5314C14.9135 12.0394 14.551 11.6237 14.0729 11.2843C14.6023 11.3703 15.1056 11.4959 15.583 11.6609C16.0604 11.8259 16.5196 12.0247 16.9607 12.2571C17.373 12.474 17.6926 12.7348 17.9194 13.0396C18.1461 13.3444 18.2595 13.6763 18.2595 14.0352V14.6865C18.2595 15.0172 18.1439 15.2972 17.9127 15.5267C17.6815 15.7561 17.4032 15.8708 17.0777 15.8708ZM7.84932 9.76026C7.06842 9.76026 6.40391 9.48621 5.8558 8.93812C5.3077 8.39 5.03366 7.7255 5.03366 6.94459C5.03366 6.16368 5.3077 5.49917 5.8558 4.95107C6.40391 4.40296 7.06842 4.12891 7.84932 4.12891C8.63023 4.12891 9.29473 4.40296 9.84284 4.95107C10.3909 5.49917 10.665 6.16368 10.665 6.94459C10.665 7.7255 10.3909 8.39 9.84284 8.93812C9.29473 9.48621 8.63023 9.76026 7.84932 9.76026ZM14.7419 6.93566C14.7419 7.71038 14.4678 8.37309 13.9197 8.9238C13.3716 9.4745 12.7071 9.74984 11.9262 9.74984C11.8477 9.74984 11.7434 9.74025 11.6135 9.72105C11.4835 9.70186 11.3765 9.68074 11.2924 9.6577C11.617 9.27811 11.8658 8.85647 12.0387 8.39276C12.2116 7.92905 12.298 7.44426 12.298 6.93839C12.298 6.43437 12.2091 5.95097 12.0312 5.48818C11.8533 5.02537 11.607 4.60086 11.2924 4.21464C11.3966 4.17618 11.5029 4.15228 11.6113 4.14293C11.7197 4.13358 11.8247 4.12891 11.9262 4.12891C12.7071 4.12891 13.3716 4.40373 13.9197 4.95339C14.4678 5.50304 14.7419 6.1638 14.7419 6.93566ZM2.91022 14.705H12.782V14.1203C12.782 13.9428 12.7385 13.7858 12.6514 13.6493C12.5643 13.5128 12.4241 13.3925 12.2307 13.2883C11.5488 12.939 10.8523 12.6749 10.1411 12.4962C9.42999 12.3176 8.66665 12.2282 7.85109 12.2282C7.03319 12.2282 6.26752 12.3176 5.55409 12.4962C4.84066 12.6749 4.14314 12.939 3.46151 13.2883C3.26545 13.3925 3.12456 13.5131 3.03882 13.6501C2.95309 13.7871 2.91022 13.9435 2.91022 14.1193V14.705ZM7.84803 8.59443C8.30295 8.59443 8.69186 8.4334 9.01478 8.11134C9.3377 7.78929 9.49916 7.4008 9.49916 6.94589C9.49916 6.49096 9.33813 6.10203 9.01607 5.77911C8.69402 5.4562 8.30553 5.29474 7.85061 5.29474C7.3957 5.29474 7.00678 5.45577 6.68386 5.77782C6.36095 6.09988 6.19949 6.48837 6.19949 6.9433C6.19949 7.39822 6.36052 7.78714 6.68257 8.11005C7.00463 8.43297 7.39311 8.59443 7.84803 8.59443Z" fill="#56616B"/>
  </g>
</svg>