<svg xmlns="http://www.w3.org/2000/svg" width="20" height="20" viewBox="0 0 20 20" fill="none">
  <mask id="mask0_4270_809" style="mask-type:alpha" maskUnits="userSpaceOnUse" x="0" y="0" width="20" height="20">
    <rect width="20" height="20" fill="#D9D9D9"/>
  </mask>
  <g mask="url(#mask0_4270_809)">
    <path d="M11.4363 10.4919C10.8869 10.4919 10.4228 10.3025 10.0441 9.92381C9.66538 9.54507 9.47601 9.08034 9.47601 8.5296C9.47601 7.97885 9.66623 7.51585 10.0467 7.1406C10.4271 6.76534 10.8921 6.5777 11.4418 6.5777C11.9856 6.5777 12.4463 6.76666 12.8238 7.14456C13.2014 7.52245 13.3902 7.98438 13.3902 8.53035C13.3902 9.07631 13.2028 9.53973 12.828 9.9206C12.4532 10.3015 11.9893 10.4919 11.4363 10.4919ZM6.02888 13.072C5.63776 13.072 5.30293 12.9328 5.0244 12.6542C4.74588 12.3757 4.60661 12.0409 4.60661 11.6498V5.41983C4.60661 5.02871 4.74588 4.69388 5.0244 4.41535C5.30293 4.13682 5.63776 3.99756 6.02888 3.99756H16.8542C17.2453 3.99756 17.5801 4.13682 17.8586 4.41535C18.1372 4.69388 18.2764 5.02871 18.2764 5.41983V11.6498C18.2764 12.0409 18.1372 12.3757 17.8586 12.6542C17.5801 12.9328 17.2453 13.072 16.8542 13.072H6.02888ZM7.22838 11.9062H15.6547C15.6547 11.4976 15.7972 11.1499 16.0823 10.8634C16.3675 10.5768 16.7102 10.4335 17.1106 10.4335V6.63614C16.7062 6.63614 16.3625 6.49252 16.0793 6.20527C15.7962 5.918 15.6547 5.57071 15.6547 5.16339H7.22838C7.22838 5.57205 7.08582 5.91967 6.8007 6.20627C6.51558 6.49285 6.17283 6.63614 5.77245 6.63614V10.4335C6.17683 10.4335 6.52058 10.5771 6.8037 10.8644C7.08682 11.1516 7.22838 11.4989 7.22838 11.9062ZM15.2452 15.9382H3.1459C2.75478 15.9382 2.41995 15.7989 2.14142 15.5204C1.8629 15.2419 1.72363 14.9071 1.72363 14.5159V7.02881C1.72363 6.87028 1.78075 6.73383 1.89499 6.61945C2.00922 6.50508 2.14651 6.44789 2.30684 6.44789C2.46717 6.44789 2.60436 6.50508 2.7184 6.61945C2.83245 6.73383 2.88947 6.87028 2.88947 7.02881V14.5159C2.88947 14.58 2.91618 14.6388 2.96961 14.6922C3.02303 14.7456 3.08179 14.7724 3.1459 14.7724H15.2452C15.4037 14.7724 15.5402 14.8296 15.6545 14.944C15.7689 15.0584 15.8261 15.195 15.8261 15.3536C15.8261 15.5152 15.7689 15.6531 15.6545 15.7671C15.5402 15.8812 15.4037 15.9382 15.2452 15.9382ZM6.02888 11.9062H5.77245V5.16339H6.02888C5.95944 5.16339 5.89934 5.18877 5.84859 5.23954C5.79783 5.29029 5.77245 5.35039 5.77245 5.41983V11.6498C5.77245 11.7192 5.79783 11.7793 5.84859 11.8301C5.89934 11.8808 5.95944 11.9062 6.02888 11.9062Z" fill="#56616B"/>
  </g>
</svg>